<svg width="26" height="26" viewBox="0 0 26 26" fill="none" xmlns="http://www.w3.org/2000/svg">
<path d="M10.92 11.7651C10.9742 11.4076 11.0933 11.0934 11.245 10.8226C11.3967 10.5517 11.6133 10.3242 11.8842 10.1509C12.1442 9.98841 12.4692 9.91258 12.87 9.90175C13.1192 9.91258 13.3467 9.95591 13.5525 10.0426C13.7692 10.1401 13.9642 10.2701 14.1158 10.4326C14.2675 10.5951 14.3867 10.7901 14.4842 11.0067C14.5817 11.2234 14.625 11.4617 14.6358 11.7001H16.575C16.5533 11.1909 16.4558 10.7251 16.2717 10.3026C16.0875 9.88008 15.8383 9.51175 15.5133 9.20841C15.1883 8.90508 14.7983 8.66675 14.3433 8.49341C13.8883 8.32008 13.39 8.24425 12.8375 8.24425C12.1333 8.24425 11.5158 8.36341 10.9958 8.61258C10.4758 8.86175 10.0425 9.18675 9.69584 9.60925C9.34917 10.0317 9.08917 10.5192 8.92667 11.0826C8.76417 11.6459 8.66667 12.2309 8.66667 12.8592V13.1517C8.66667 13.7801 8.75334 14.3651 8.91584 14.9284C9.07834 15.4917 9.33834 15.9792 9.685 16.3909C10.0317 16.8026 10.465 17.1384 10.985 17.3767C11.505 17.6151 12.1225 17.7451 12.8267 17.7451C13.3358 17.7451 13.8125 17.6584 14.2567 17.4959C14.7008 17.3334 15.0908 17.1059 15.4267 16.8134C15.7625 16.5209 16.0333 16.1851 16.2283 15.7951C16.4233 15.4051 16.5425 14.9934 16.5533 14.5492H14.6142C14.6033 14.7767 14.5492 14.9826 14.4517 15.1776C14.3542 15.3726 14.2242 15.5351 14.0617 15.6759C13.8992 15.8167 13.715 15.9251 13.4983 16.0009C13.2925 16.0767 13.0758 16.0984 12.8483 16.1092C12.4583 16.0984 12.1333 16.0226 11.8842 15.8601C11.6133 15.6867 11.3967 15.4592 11.245 15.1884C11.0933 14.9176 10.9742 14.5926 10.92 14.2351C10.8658 13.8776 10.8333 13.5092 10.8333 13.1517V12.8592C10.8333 12.4801 10.8658 12.1226 10.92 11.7651ZM13 2.16675C7.02 2.16675 2.16667 7.02008 2.16667 13.0001C2.16667 18.9801 7.02 23.8334 13 23.8334C18.98 23.8334 23.8333 18.9801 23.8333 13.0001C23.8333 7.02008 18.98 2.16675 13 2.16675ZM13 21.6667C8.2225 21.6667 4.33334 17.7776 4.33334 13.0001C4.33334 8.22258 8.2225 4.33341 13 4.33341C17.7775 4.33341 21.6667 8.22258 21.6667 13.0001C21.6667 17.7776 17.7775 21.6667 13 21.6667Z" fill="white" fill-opacity="0.8"/>
</svg>
