<svg width="50" height="49" viewBox="0 0 50 49" fill="none" xmlns="http://www.w3.org/2000/svg">
<path fill-rule="evenodd" clip-rule="evenodd" d="M45.3125 24.0268C45.3125 29.2043 43.1724 34.1697 39.3631 37.8307C35.5538 41.4918 30.3872 43.5485 25 43.5485C19.6128 43.5485 14.4462 41.4918 10.6369 37.8307C6.82756 34.1697 4.6875 29.2043 4.6875 24.0268C4.6875 18.8493 6.82756 13.8838 10.6369 10.2228C14.4462 6.56177 19.6128 4.50502 25 4.50502C30.3872 4.50502 35.5538 6.56177 39.3631 10.2228C43.1724 13.8838 45.3125 18.8493 45.3125 24.0268ZM50 24.0268C50 30.3991 47.3661 36.5104 42.6777 41.0163C37.9893 45.5221 31.6304 48.0535 25 48.0535C18.3696 48.0535 12.0107 45.5221 7.32233 41.0163C2.63392 36.5104 0 30.3991 0 24.0268C0 17.6545 2.63392 11.5432 7.32233 7.03728C12.0107 2.53138 18.3696 0 25 0C31.6304 0 37.9893 2.53138 42.6777 7.03728C47.3661 11.5432 50 17.6545 50 24.0268ZM27.3438 11.2625C27.3438 10.6651 27.0968 10.0922 26.6573 9.66978C26.2177 9.24735 25.6216 9.01004 25 9.01004C24.3784 9.01004 23.7823 9.24735 23.3427 9.66978C22.9032 10.0922 22.6562 10.6651 22.6562 11.2625V24.9578L23.3438 25.6185L30.3875 32.3881C30.6021 32.6094 30.8608 32.7869 31.1483 32.91C31.4358 33.0331 31.7462 33.0993 32.0609 33.1047C32.3756 33.11 32.6882 33.0544 32.98 32.9411C33.2718 32.8278 33.5369 32.6592 33.7595 32.4453C33.9821 32.2314 34.1575 31.9766 34.2754 31.6961C34.3933 31.4156 34.4512 31.1152 34.4456 30.8128C34.44 30.5103 34.3712 30.212 34.2431 29.9357C34.115 29.6594 33.9303 29.4107 33.7 29.2045L27.3438 23.0927V11.2625Z" fill="#D69B45" fill-opacity="0.8"/>
</svg>
